<svg width="43" height="43" viewBox="0 0 43 43" fill="none" xmlns="http://www.w3.org/2000/svg">
<g clip-path="url(#clip0_133_1280)">
<path d="M21.5002 22.2491C19.6369 20.7813 16.8234 22.1461 16.8355 24.5383C16.8237 26.9304 19.6368 28.2955 21.5002 26.8273C22.9923 25.7034 22.9924 23.3729 21.5002 22.2491Z" fill="white"/>
<path d="M19.7304 19.1236C20.7061 19.1236 21.4998 18.3297 21.4998 17.3541C21.4998 16.3785 20.7061 15.5847 19.7304 15.5847C18.7547 15.5847 17.9609 16.3785 17.9609 17.3541C17.9609 18.3297 18.7547 19.1236 19.7304 19.1236Z" fill="white"/>
<path d="M36.7028 6.29723C32.642 2.23634 27.2429 0 21.5 0C15.7571 0 10.358 2.23634 6.29715 6.29723C2.23634 10.358 0 15.7571 0 21.5C0 27.2429 2.23634 32.642 6.29715 36.7028C10.358 40.7637 15.7571 43 21.5 43C27.2429 43 32.642 40.7637 36.7028 36.7028C40.7636 32.642 43 27.2429 43 21.5C43 15.7571 40.7636 10.358 36.7028 6.29723ZM11.8295 28.6995C11.8295 29.3952 11.2654 29.9592 10.5697 29.9592C9.87396 29.9592 9.30992 29.3952 9.30992 28.6995V15.5783H7.49586C6.80013 15.5783 6.23609 15.0142 6.23609 14.3185C6.23609 13.6228 6.80013 13.0587 7.49586 13.0587H10.5697C11.2654 13.0587 11.8295 13.6228 11.8295 14.3185V28.6995ZM21.5 29.6545C20.9451 29.847 20.3501 29.9529 19.7304 29.9529C16.7447 29.9529 14.3156 27.5239 14.3156 24.5381C14.3156 22.7563 15.1811 21.1733 16.5133 20.1859C15.8469 19.4299 15.4414 18.4386 15.4414 17.3539C15.4414 14.989 17.3654 13.065 19.7304 13.065C20.3612 13.065 20.96 13.203 21.4999 13.4486C22.9843 14.1238 24.0194 15.6198 24.0194 17.3539C24.0194 18.4386 23.6139 19.4298 22.9476 20.1859C24.2798 21.1732 25.1453 22.7564 25.1453 24.5381C25.1453 26.9042 23.6191 28.9194 21.5 29.6545ZM36.4223 22.7178H33.4496V25.7922C33.4496 26.4879 32.8856 27.052 32.1899 27.052C31.4941 27.052 30.9301 26.4879 30.9301 25.7922V22.7178H27.8557C27.16 22.7178 26.5959 22.1537 26.5959 21.458C26.5959 20.7623 27.16 20.1982 27.8557 20.1982H30.9301V17.2256C30.9301 16.5299 31.4941 15.9658 32.1899 15.9658C32.8856 15.9658 33.4496 16.5299 33.4496 17.2256V20.1982H36.4223C37.118 20.1982 37.682 20.7623 37.682 21.458C37.682 22.1537 37.118 22.7178 36.4223 22.7178Z" fill="white"/>
</g>
<defs>
<clipPath id="clip0_133_1280">
<rect width="43" height="43" fill="white"/>
</clipPath>
</defs>
</svg>
