<svg width="42" height="42" viewBox="0 0 42 42" fill="none" xmlns="http://www.w3.org/2000/svg">
<g clip-path="url(#clip0_133_1733)">
<path d="M37.5972 29.6391C39.9768 26.5365 41.2695 22.7376 41.2758 18.8276V23.1725C41.2688 27.0484 39.9976 30.8162 37.6552 33.9041V29.6897L37.5972 29.6391Z" fill="#CE893D"/>
<path d="M37.6553 29.6896V33.904C36.6204 35.2904 35.4023 36.5304 34.0346 37.5901V33.3103L33.9985 33.2668C35.3545 32.2234 36.5648 31.0032 37.5973 29.639L37.6553 29.6896Z" fill="#E6A71E"/>
<path d="M21 0C32.1951 0 41.2758 8.42906 41.2758 18.8276C41.2695 22.7375 39.9768 26.5364 37.5972 29.6391C36.5647 31.0032 35.3544 32.2234 33.9984 33.2668C32.8874 34.1398 31.686 34.8901 30.4138 35.5043C29.0267 36.1807 27.5699 36.703 26.0689 37.0615C22.7361 37.8532 19.2639 37.8532 15.931 37.0615C14.4301 36.703 12.9733 36.1807 11.5862 35.5043C10.3144 34.8901 9.11252 34.1398 8.00156 33.2668C6.64557 32.2234 5.43526 31.0032 4.4028 29.6391C2.02318 26.5364 0.730486 22.7375 0.724121 18.8276C0.724121 8.42906 9.80484 0 21 0Z" fill="#FFCB5A"/>
<path d="M34.0343 33.3103V37.5901C32.9148 38.4695 31.7034 39.2244 30.4206 39.8421L30.4136 39.8276V35.5043C31.6858 34.8901 32.8872 34.1398 33.9982 33.2668L34.0343 33.3103Z" fill="#CE893D"/>
<path d="M30.4137 39.8275L30.4207 39.842C29.0414 40.5184 27.5917 41.0403 26.0978 41.3989L26.0688 41.2758V37.0615C27.5698 36.7029 29.0266 36.1807 30.4137 35.5043V39.8275Z" fill="#E6A71E"/>
<path d="M26.098 41.3989C24.4283 41.7992 22.717 42.0007 21 42V37.6552C22.7071 37.6584 24.4089 37.459 26.069 37.0615V41.2759L26.098 41.3989Z" fill="#CE893D"/>
<path d="M20.9998 37.6552V42C19.2828 42.0007 17.5718 41.7992 15.9019 41.3989L15.9308 41.2759V37.0615C17.5909 37.459 19.2927 37.6584 20.9998 37.6552Z" fill="#E6A71E"/>
<path d="M15.931 37.0615V41.2758L15.902 41.3989C14.4081 41.0403 12.9584 40.5184 11.5791 39.842L11.5862 39.8275V35.5043C12.9733 36.1807 14.43 36.7029 15.931 37.0615Z" fill="#CE893D"/>
<path d="M8.0014 33.2668C9.11235 34.1398 10.3142 34.8901 11.586 35.5043V39.8276L11.5789 39.8421C10.2979 39.2219 9.08654 38.467 7.96533 37.5901V33.3103L8.0014 33.2668Z" fill="#E6A71E"/>
<path d="M4.40271 29.639C5.43518 31.0032 6.64549 32.2234 8.00148 33.2668L7.96542 33.3103V37.5901C6.59776 36.5304 5.37966 35.2904 4.34473 33.904V29.6896L4.40271 29.639Z" fill="#CE893D"/>
<path d="M0.724121 18.8276C0.730486 22.7376 2.02318 26.5365 4.4028 29.6391L4.34481 29.6897V33.9041C2.00232 30.8162 0.731193 27.0484 0.724121 23.1725V18.8276Z" fill="#E6A71E"/>
<path d="M36.9309 18.8276C36.9309 10.8289 29.7984 4.34485 20.9999 4.34485C12.2013 4.34485 5.06885 10.8289 5.06885 18.8276C5.06885 26.8264 12.2013 33.3104 20.9999 33.3104C29.7984 33.3104 36.9309 26.8264 36.9309 18.8276Z" fill="#E6A71E"/>
<path d="M30.9519 27.3209L29.9619 26.2651C30.808 25.4767 31.5251 24.5598 32.0859 23.5482L33.3545 24.2448C32.7213 25.3907 31.9102 26.4292 30.9519 27.3209Z" fill="#FFCB5A"/>
<path d="M20.9998 31.1379C13.413 31.1379 7.24121 25.6156 7.24121 18.8276C7.24121 12.0395 13.413 6.51721 20.9998 6.51721C28.5867 6.51721 34.7584 12.0395 34.7584 18.8276H33.3102C33.3102 12.8382 27.7879 7.96549 20.9998 7.96549C14.2117 7.96549 8.68949 12.8382 8.68949 18.8276C8.68949 24.8169 14.2117 29.6896 20.9998 29.6896C23.4155 29.7013 25.7891 29.0606 27.8703 27.8344L28.6121 29.0793C26.3064 30.4385 23.6765 31.1499 20.9998 31.1379Z" fill="#FFCB5A"/>
</g>
<defs>
<clipPath id="clip0_133_1733">
<rect width="42" height="42" fill="white"/>
</clipPath>
</defs>
</svg>
