<svg width="110" height="35" viewBox="0 0 110 35" fill="none" xmlns="http://www.w3.org/2000/svg">
<g clip-path="url(#clip0_133_1263)">
<path d="M5.86667 0H104.133C105.783 0 107.25 0.744545 108.35 1.67523C109.267 2.79205 110 4.28114 110 5.95795V29.042C110 30.7189 109.267 32.208 108.35 33.3248C107.25 34.4416 105.783 35 104.133 35H5.86667C4.21667 35 2.75 34.4416 1.65 33.3248C0.733333 32.208 0 30.7189 0 29.042V5.95795C0 4.28114 0.733333 2.79205 1.65 1.67523C2.75 0.744545 4.21667 0 5.86667 0ZM104.133 1.48909H5.86667C5.28651 1.48993 4.7123 1.60567 4.1773 1.8296C3.6423 2.05354 3.15716 2.38121 2.75 2.79364C1.92558 3.64071 1.46511 4.77551 1.46667 5.95636V29.0405C1.46667 30.345 2.01667 31.4618 2.75 32.2064C3.48333 33.137 4.58333 33.5093 5.86667 33.5093H104.133C105.417 33.5093 106.517 33.137 107.25 32.2048C107.983 31.4618 108.533 30.3434 108.533 29.0405V5.95795C108.533 4.65341 107.983 3.53659 107.25 2.79205C106.843 2.37991 106.358 2.05253 105.823 1.82887C105.288 1.60521 104.713 1.48972 104.133 1.48909ZM39.9667 13.405H41.0667V10.053H41.9833C42.9 10.053 43.2667 10.6114 43.45 11.542C43.6333 12.6589 43.8167 13.2189 44 13.4034H45.1C44.9167 13.2189 44.7333 12.4727 44.3667 11.3559C44.1833 10.6114 44 10.053 43.2667 9.68068C44.1833 9.49455 44.7333 8.75 44.7333 7.63318C44.7333 7.07477 44.55 6.51636 44.1833 6.14409C43.6333 5.77182 43.0833 5.58568 41.9833 5.58568C41.25 5.58568 40.5167 5.58568 39.9667 5.77182V13.405ZM41.0667 6.51636C41.25 6.33023 41.4333 6.33023 41.9833 6.33023C43.0833 6.33023 43.8167 6.88705 43.8167 7.81932C43.8167 8.75 43.0833 9.30841 41.9833 9.30841H41.0667V6.51636ZM50.2333 8.93614H47.1167V6.51636H50.4167V5.58409H46.2V13.4034H50.6V12.6573H47.1167V9.86682H50.2333V8.93614ZM51.3333 13.0311C51.8833 13.405 52.6167 13.5911 53.35 13.5911C55.1833 13.5911 56.1 12.4727 56.1 11.3559C56.1 10.2391 55.3667 9.49455 54.0833 9.12227C52.9833 8.56386 52.6167 8.19159 52.6167 7.44705C52.6167 7.07477 52.9833 6.33023 54.0833 6.33023C54.8167 6.33023 55.1833 6.51636 55.55 6.7025L55.7333 5.95795C55.2206 5.70517 54.6551 5.57758 54.0833 5.58568C52.6167 5.58568 51.5167 6.51636 51.5167 7.63318C51.5167 8.75 52.4333 9.49455 53.5333 9.86682C54.6333 10.2391 55 10.6114 55 11.3559C55 12.2866 54.45 12.845 53.5333 12.845C52.8 12.845 52.0667 12.4727 51.7 12.2882L51.3333 13.0311ZM57.3833 13.405H58.4833V10.4252H59.2167C60.1333 10.4252 61.05 10.053 61.6 9.49455C61.9667 9.12227 62.15 8.56386 62.15 7.81932C62.15 7.26091 61.9667 6.7025 61.6 6.33023C61.05 5.77182 60.3167 5.58568 59.4 5.58568C58.4833 5.58568 57.9333 5.58568 57.3833 5.77182V13.405ZM58.4833 6.51636C58.6667 6.51636 59.0333 6.33023 59.4 6.33023C60.5 6.33023 61.2333 6.88705 61.2333 8.00546C61.2333 8.93614 60.5 9.68068 59.2167 9.68068C58.85 9.68068 58.6667 9.49455 58.4833 9.49455V6.51636ZM66.7333 5.58568C64.5333 5.58568 63.0667 7.07477 63.0667 9.68068C63.0667 12.1005 64.5333 13.5911 66.55 13.5911C68.5667 13.5911 70.2167 12.1005 70.2167 9.49455C70.2167 7.07477 68.75 5.58568 66.7333 5.58568ZM66.55 6.33023C68.2 6.33023 69.1167 8.00545 69.1167 9.49614C69.1167 11.3575 68.2 12.845 66.55 12.845C65.0833 12.845 64.1667 11.3559 64.1667 9.68068C64.1667 7.81932 64.9 6.33023 66.55 6.33023ZM72.4167 13.405V10.053C72.4167 8.75 72.4167 7.81932 72.2333 6.88705C72.7833 7.81932 73.15 8.56386 73.7 9.49614L76.2667 13.405H77.1833V5.58409H76.2667V8.93455C76.2667 10.2391 76.2667 11.1682 76.45 12.1005C76.0833 11.3543 75.5333 10.6098 74.9833 9.67909L72.6 5.58568H71.5V13.405H72.4167ZM78.65 13.0311C79.0167 13.405 79.75 13.5911 80.4833 13.5911C82.3167 13.5911 83.2333 12.4727 83.2333 11.3559C83.2333 10.2391 82.5 9.49455 81.2167 9.12227C80.1167 8.56386 79.75 8.19159 79.75 7.44705C79.75 7.07477 80.1167 6.33023 81.2167 6.33023C81.95 6.33023 82.3167 6.51636 82.6833 6.7025L82.8667 5.95795C82.354 5.70517 81.7885 5.57758 81.2167 5.58568C79.75 5.58568 78.65 6.51636 78.65 7.63318C78.65 8.75 79.5667 9.49455 80.85 9.86682C81.7667 10.2391 82.1333 10.6114 82.1333 11.3559C82.1333 12.2866 81.5833 12.845 80.6667 12.845C79.9333 12.845 79.2 12.4727 78.8333 12.2882L78.65 13.0311ZM84.5167 5.58568V13.405H85.6167V5.58409L84.5167 5.58568ZM87.2667 13.405C87.6333 13.5911 88.1833 13.5911 88.9167 13.5911C90.2 13.5911 90.9333 13.405 91.4833 12.845C91.85 12.4727 92.2167 11.9143 92.2167 11.1698C92.2167 10.053 91.3 9.49454 90.5667 9.30841C91.4833 8.93614 91.85 8.37773 91.85 7.63318C91.85 6.88864 91.6667 6.51636 91.3 6.14409C90.75 5.77182 90.2 5.58568 89.1 5.58568C88.3667 5.58568 87.8167 5.58568 87.2667 5.77182V13.405ZM88.3667 6.51636C88.55 6.33023 88.7333 6.33023 89.2833 6.33023C90.2 6.33023 90.9333 6.7025 90.9333 7.63318C90.9333 8.37773 90.2 8.93614 89.2833 8.93614H88.3667V6.51636ZM88.3667 9.68227H89.1C90.2 9.68227 91.1167 10.2391 91.1167 11.1698C91.1167 12.2866 90.2 12.845 89.1 12.845C88.7333 12.845 88.55 12.6589 88.3667 12.6589V9.68227ZM93.5 13.405H97.9V12.6589H94.6V5.58568H93.5V13.405ZM102.85 8.93614H99.9167V6.51636H103.033V5.58409H99V13.4034H103.217V12.6573H99.9167V9.86682H102.85V8.93614ZM48.95 21.595H44.55V24.0164H46.3833V26.8084C46.2 26.9945 45.65 26.9945 45.1 26.9945C42.9 26.9945 41.4333 25.3193 41.4333 22.7134C41.4333 19.7336 43.0833 18.2445 45.2833 18.2445C46.5667 18.2445 47.3 18.6168 48.0333 18.9891L48.5833 16.5693C48.0333 16.197 46.75 15.8248 45.2833 15.8248C41.4333 15.8248 38.6833 18.4307 38.6833 22.7134C38.6833 24.7609 39.2333 26.4361 40.3333 27.7407C41.4333 28.8559 42.9 29.4143 45.1 29.4143C46.5667 29.4143 48.2167 29.042 48.95 28.6698V21.595ZM57.0167 25.8777L57.9333 29.2282H60.6833L57.2 16.0109H53.7167L50.2333 29.2282H52.8L53.7167 25.8777H57.0167ZM54.0833 23.6441L54.8167 20.8505C55 20.1059 55.1833 18.9891 55.3667 18.2445C55.55 18.9891 55.7333 19.9198 55.9167 20.8505L56.65 23.6441H54.0833ZM72.2333 29.2282H74.8L74.25 16.0109H70.7667L69.4833 20.4782C69.1167 21.9689 68.75 23.6441 68.3833 25.1332C68.2 23.6441 67.8333 21.9673 67.4667 20.4782L66.3667 16.0109H62.7L61.9667 29.2282H64.5333L64.7167 24.2009C64.7167 22.5273 64.9 20.4782 64.9 18.803C65.2667 20.4782 65.6333 22.3411 66 24.0164L67.2833 29.0436H69.3L70.7667 23.8302C71.1333 22.3411 71.6833 20.4782 72.05 18.803V24.2025L72.2333 29.2282ZM76.8167 16.0109V29.2282H79.5667V16.0109H76.8167ZM84.15 29.2282V19.5475C84.7 21.0366 85.4333 22.7134 86.1667 24.2025L88.7333 29.2298H91.4833V16.0093H89.1V19.9198C89.1 21.7811 89.1 23.6425 89.2833 25.5039C88.6887 23.9204 88.0157 22.3673 87.2667 20.8505L84.8833 16.0109H81.7667V29.2282H84.15ZM103.4 21.595H99.1833V24.0164H100.833V26.8084C100.65 26.9945 100.283 26.9945 99.55 26.9945C97.5333 26.9945 95.8833 25.3193 95.8833 22.7134C95.8833 19.7336 97.5333 18.2445 99.7333 18.2445C101.017 18.2445 101.933 18.6168 102.483 18.9891L103.033 16.5693C102.483 16.197 101.383 15.8248 99.9167 15.8248C96.0667 15.8248 93.1333 18.4307 93.1333 22.7134C93.1333 24.7609 93.6833 26.4361 94.7833 27.7407C95.8833 28.8559 97.35 29.4143 99.55 29.4143C101.017 29.4143 102.667 29.042 103.4 28.6698V21.595ZM19.8 29.042H15.2167V19.9198H13.9333C12.1 20.1059 11.1833 20.8505 10.6333 23.6425C10.0833 26.4361 9.53333 28.4836 9.16667 29.042H4.58333C4.95 28.1114 5.68333 25.1332 6.23333 22.5273C6.78333 20.4782 7.51667 18.8045 8.98333 18.2445V18.0584C7.15 17.5 5.31667 15.4525 5.31667 12.4743C5.31667 10.2391 6.05 8.75 7.15 7.63318C8.61667 6.32864 10.8167 5.77182 13.75 5.77182C16.1333 5.77182 18.3333 5.95795 19.8 6.32864V8.37773C21.8167 6.7025 24.3833 5.77182 27.5 5.77182C30.0667 5.77182 32.0833 6.32864 33 6.88864L32.0833 10.9836C30.9833 10.4268 29.7 10.053 27.3167 10.053C23.65 10.053 20.7167 12.4727 20.7167 17.5C20.7167 22.3411 23.2833 25.1332 27.1333 25.1332C28.05 25.1332 28.9667 24.947 29.3333 24.7609V19.9182H26.2167V15.8248H33.7333V27.9252C32.2667 28.4836 29.7 29.2298 26.95 29.2298C23.8333 29.2298 21.6333 28.4836 19.8 27.1807V29.042ZM15.2167 9.86682C15.0333 9.86682 14.3 9.68068 13.2 9.68068C11.1833 9.68068 9.9 10.7975 9.9 12.8466C9.9 14.8941 11.1833 16.197 13.5667 16.197H15.2167V9.86682Z" fill="white"/>
</g>
<defs>
<clipPath id="clip0_133_1263">
<rect width="110" height="35" fill="white"/>
</clipPath>
</defs>
</svg>
