<svg width="43" height="43" viewBox="0 0 43 43" fill="none" xmlns="http://www.w3.org/2000/svg">
<path d="M40.6861 35.7615L24.7829 3.95558C24.157 2.70413 22.8988 1.92688 21.5004 1.92688C20.1012 1.92688 18.843 2.70413 18.2171 3.95558L2.31396 35.7615C1.74112 36.9076 1.80133 38.2426 2.47479 39.3324C3.14905 40.4222 4.31611 41.0731 5.59727 41.0731H37.4028C38.6839 41.0731 39.851 40.4222 40.5253 39.3324C41.1987 38.2426 41.2589 36.9076 40.6861 35.7615ZM38.455 38.0528C38.3456 38.2291 38.0247 38.6391 37.4028 38.6391H5.59727C4.97531 38.6391 4.65443 38.2291 4.54509 38.0528C4.43654 37.8765 4.21311 37.4063 4.49121 36.8501L20.3944 5.04421C20.6083 4.61636 21.0219 4.36084 21.5004 4.36084C21.9782 4.36084 22.3918 4.61636 22.6057 5.04421L38.5088 36.8501C38.7869 37.4063 38.5635 37.8765 38.455 38.0528Z" fill="#EB0029"/>
<path d="M12.2281 29.0647C9.89214 29.0647 7.99854 30.9583 7.99854 33.2941C7.99854 35.6299 9.89214 37.5235 12.2281 37.5235C14.5638 37.5235 16.4574 35.6299 16.4574 33.2941C16.4574 30.9583 14.5638 29.0647 12.2281 29.0647Z" fill="#EB0029"/>
<path d="M21.4999 37.5236C23.8358 37.5236 25.7293 35.63 25.7293 33.2942C25.7293 30.9583 23.8358 29.0648 21.4999 29.0648C19.1641 29.0648 17.2705 30.9583 17.2705 33.2942C17.2705 35.63 19.1641 37.5236 21.4999 37.5236Z" fill="#EB0029"/>
<path d="M30.7723 29.0647C28.4366 29.0647 26.543 30.9583 26.543 33.2941C26.543 35.6299 28.4366 37.5235 30.7723 37.5235C33.1082 37.5235 35.0018 35.6299 35.0018 33.2941C35.0018 30.9583 33.1082 29.0647 30.7723 29.0647Z" fill="#EB0029"/>
<path d="M20.6869 25.8655C20.6869 23.5297 18.7933 21.636 16.4574 21.636C14.1215 21.636 12.228 23.5297 12.228 25.8655C12.228 28.2013 14.1215 30.0949 16.4574 30.0949C18.7933 30.0949 20.6869 28.2013 20.6869 25.8655Z" fill="#EB0029"/>
<path d="M29.6487 27.4901C30.5433 25.3318 29.5189 22.8569 27.3606 21.9623C25.2023 21.0677 22.7274 22.0921 21.8328 24.2504C20.9381 26.4087 21.9626 28.8836 24.1209 29.7783C26.2792 30.6729 28.7541 29.6485 29.6487 27.4901Z" fill="#EB0029"/>
<path d="M21.1025 22.5215C23.4383 22.5215 25.3319 20.6279 25.3319 18.292C25.3319 15.9562 23.4383 14.0626 21.1025 14.0626C18.7666 14.0626 16.873 15.9562 16.873 18.292C16.873 20.6279 18.7666 22.5215 21.1025 22.5215Z" fill="#EB0029"/>
</svg>
