<svg width="45" height="45" viewBox="0 0 45 45" fill="none" xmlns="http://www.w3.org/2000/svg">
<path d="M23.2371 24.4785C21.0785 22.2514 18.2185 20.836 15.1387 20.4704C14.7754 20.4337 14.4106 20.4153 14.0455 20.4153C11.7477 20.3591 9.52405 21.2302 7.87581 22.8321C6.02332 24.7669 5.15363 27.4405 5.51331 30.0949C5.87993 33.1748 7.2952 36.0346 9.52141 38.1942C11.681 40.4204 14.5408 41.8356 17.6206 42.2023C20.2748 42.5619 22.9482 41.6922 24.8827 39.8398C26.7351 37.9049 27.6048 35.2313 27.2452 32.5769C26.8791 29.4972 25.4637 26.6374 23.2371 24.4785ZM23.7856 38.7427C22.423 40.0559 20.59 40.7665 18.6983 40.7149C15.6359 40.6106 12.7361 39.3117 10.6193 37.0963C6.53512 33.0122 5.79727 27.1063 8.97288 23.9299C12.1485 20.7536 18.0551 21.4914 22.14 25.5755C26.2249 29.6597 26.962 35.5655 23.7856 38.7427Z" fill="#EB0029"/>
<path d="M17.4664 43.7462C14.0302 43.3441 10.8372 41.7709 8.42454 39.2912C5.94485 36.8786 4.37165 33.6856 3.96954 30.2493C3.85343 29.1155 3.9023 27.9709 4.11462 26.8511C1.55893 30.7668 2.57531 36.7332 6.77893 40.9368C10.9826 45.1405 16.9342 46.1537 20.8507 43.6097C20.1484 43.7428 19.4351 43.8095 18.7202 43.8091C18.3085 43.8091 17.8906 43.7881 17.4664 43.7462Z" fill="#EB0029"/>
<path d="M14.0696 23.4931C12.5845 23.4463 11.1431 23.9992 10.0701 25.027C7.49962 27.5982 8.23747 32.5203 11.7157 36C15.1938 39.4797 20.1159 40.2176 22.6879 37.6464C25.2599 35.0752 24.5205 30.1523 21.0423 26.6734C19.2193 24.748 16.7187 23.6075 14.0696 23.4931ZM13.5777 33.3621C13.3089 33.3619 13.0594 33.2227 12.9181 32.994C12.7768 32.7653 12.764 32.4798 12.8841 32.2394L15.9876 26.0325C16.1791 25.649 16.6453 25.4934 17.0288 25.6849C17.4123 25.8764 17.5679 26.3426 17.3763 26.7261L14.2729 32.933C14.1413 33.1963 13.8721 33.3625 13.5777 33.3621ZM18.9312 32.1571L17.3795 35.2606C17.2555 35.5087 17.0087 35.6718 16.7319 35.6886C16.4551 35.7053 16.1904 35.5731 16.0375 35.3417C15.8846 35.1104 15.8668 34.8151 15.9907 34.567L17.5424 31.4635C17.7339 31.08 18.2001 30.9244 18.5836 31.1159C18.9671 31.3075 19.1227 31.7736 18.9312 32.1571Z" fill="#EB0029"/>
<path d="M6.62991 13.2758C9.35706 16.0022 12.9687 16.9937 14.5189 15.4482C16.069 13.9027 15.0744 10.2856 12.3465 7.56003C11.0951 6.25112 9.51362 5.30435 7.76887 4.81968C7.35215 4.71502 6.92455 4.65981 6.49491 4.6552C5.74549 4.61654 5.01204 4.88107 4.45982 5.38917C3.74836 6.10063 3.54508 7.27684 3.89034 8.70132C4.37533 10.4449 5.32179 12.0252 6.62991 13.2758Z" fill="#EB0029"/>
<path d="M41.4973 8.25598C41.514 9.01227 41.4311 9.76747 41.2506 10.5021C40.5485 13.0641 39.1671 15.3888 37.2526 17.2304C34.482 20.001 31.2102 21.5015 28.4853 21.5015C28.4217 21.5015 28.3604 21.4961 28.2983 21.4945C30.5057 23.2177 35.0421 21.9057 38.4846 18.464C41.9388 15.0091 43.2461 10.4532 41.4973 8.25598Z" fill="#EB0029"/>
<path d="M36.1555 16.1332C37.8686 14.4936 39.1078 12.4222 39.7423 10.1374C40.204 8.22718 39.9223 6.63899 38.951 5.66529C38.2004 4.97462 37.2037 4.61454 36.185 4.66597C33.8698 4.66597 30.9029 6.03692 28.4807 8.45916C26.7676 10.0989 25.5282 12.1702 24.8931 14.455C24.4276 16.3675 24.7131 17.9565 25.6868 18.9302C27.7654 21.0072 32.5594 19.7286 36.1555 16.1332ZM33.2662 14.9842L29.975 16.0812C29.7117 16.169 29.4216 16.1095 29.2139 15.9254C29.0063 15.7412 28.9127 15.4602 28.9684 15.1883C29.024 14.9164 29.2206 14.6948 29.4839 14.6071L32.7751 13.5093C33.1822 13.3736 33.6221 13.5937 33.7577 14.0008C33.8934 14.4078 33.6733 14.8485 33.2662 14.9842ZM28.9354 10.7689L35.5186 8.57399C35.9256 8.43837 36.3656 8.65843 36.5012 9.0655C36.6368 9.47257 36.4167 9.91251 36.0097 10.0481L29.4265 12.2423C29.3473 12.2692 29.2642 12.2828 29.1805 12.2826C28.7998 12.2829 28.4751 12.0068 28.4141 11.6309C28.3532 11.2551 28.574 10.8905 28.9354 10.7705V10.7689Z" fill="#EB0029"/>
<path d="M20.0215 3.87931C20.45 3.87931 20.7973 3.53194 20.7973 3.10345V0.775862C20.7973 0.347365 20.45 0 20.0215 0C19.593 0 19.2456 0.347365 19.2456 0.775862V3.10345C19.2456 3.53194 19.593 3.87931 20.0215 3.87931Z" fill="#EB0029"/>
<path d="M20.0215 5.43103C19.593 5.43103 19.2456 5.7784 19.2456 6.20689V8.53448C19.2456 8.96298 19.593 9.31034 20.0215 9.31034C20.45 9.31034 20.7973 8.96298 20.7973 8.53448V6.20689C20.7973 5.7784 20.45 5.43103 20.0215 5.43103Z" fill="#EB0029"/>
<path d="M21.5732 5.431H23.9008C24.3293 5.431 24.6767 5.08363 24.6767 4.65513C24.6767 4.22664 24.3293 3.87927 23.9008 3.87927H21.5732C21.1447 3.87927 20.7974 4.22664 20.7974 4.65513C20.7974 5.08363 21.1447 5.431 21.5732 5.431Z" fill="#EB0029"/>
<path d="M16.1421 5.431H18.4697C18.8982 5.431 19.2455 5.08363 19.2455 4.65513C19.2455 4.22664 18.8982 3.87927 18.4697 3.87927H16.1421C15.7136 3.87927 15.3662 4.22664 15.3662 4.65513C15.3662 5.08363 15.7136 5.431 16.1421 5.431Z" fill="#EB0029"/>
<path d="M37.0811 28.1583L35.5294 29.7101C35.3277 29.9049 35.2468 30.1933 35.3178 30.4646C35.3888 30.7359 35.6006 30.9477 35.8719 31.0187C36.1432 31.0897 36.4316 31.0088 36.6264 30.8071L38.1782 29.2554C38.4722 28.951 38.468 28.4671 38.1687 28.1678C37.8694 27.8685 37.3855 27.8643 37.0811 28.1583Z" fill="#EB0029"/>
<path d="M33.2017 32.0376L31.65 33.5893C31.4483 33.7841 31.3674 34.0726 31.4384 34.3439C31.5094 34.6151 31.7212 34.827 31.9925 34.898C32.2638 34.969 32.5522 34.8881 32.747 34.6864L34.2988 33.1347C34.5928 32.8303 34.5886 32.3463 34.2893 32.0471C33.99 31.7478 33.5061 31.7436 33.2017 32.0376Z" fill="#EB0029"/>
<path d="M36.6264 32.0376C36.322 31.7436 35.838 31.7478 35.5388 32.0471C35.2395 32.3463 35.2353 32.8303 35.5293 33.1347L37.081 34.6864C37.3855 34.9804 37.8694 34.9762 38.1687 34.677C38.4679 34.3777 38.4721 33.8938 38.1781 33.5893L36.6264 32.0376Z" fill="#EB0029"/>
<path d="M32.747 28.1583C32.4426 27.8643 31.9586 27.8685 31.6594 28.1678C31.3601 28.4671 31.3559 28.951 31.6499 29.2554L33.2016 30.8071C33.5061 31.1012 33.99 31.097 34.2893 30.7977C34.5885 30.4984 34.5927 30.0145 34.2987 29.7101L32.747 28.1583Z" fill="#EB0029"/>
</svg>
