<svg width="54" height="54" viewBox="0 0 54 54" fill="none" xmlns="http://www.w3.org/2000/svg">
<g clip-path="url(#clip0_133_1810)">
<path fill-rule="evenodd" clip-rule="evenodd" d="M26.9722 22.6417C25.299 18.1161 23.6576 13.5905 22.0163 9.04888C21.8091 8.45927 21.1558 8.15648 20.5662 8.37962L0.742725 15.5983C0.153122 15.8054 -0.149671 16.4588 0.0734722 17.0484L4.66287 29.6692C4.87003 30.2588 5.52339 30.5616 6.113 30.3384L24.9007 23.5022L25.7931 25.8925L19.0366 44.1703C18.8294 44.7599 19.1162 45.3973 19.7058 45.6204C20.2954 45.8276 20.9328 45.5408 21.156 44.9512L27.0042 29.1433L32.8525 44.9512C33.0596 45.5408 33.713 45.8436 34.3026 45.6204C34.8922 45.4133 35.195 44.7599 34.9718 44.1703L28.2153 25.8925L29.1077 23.5022L47.8954 30.3384C48.485 30.5456 49.1224 30.2428 49.3456 29.6692L53.935 17.0484C54.1421 16.4588 53.8393 15.8214 53.2657 15.5983L33.4419 8.37962C32.8523 8.17246 32.2149 8.47526 31.9918 9.04888C30.3505 13.5745 28.7091 18.1161 27.0359 22.6417H26.9722ZM39.4495 16.905L38.1428 20.5064L34.5415 19.1996L35.8482 15.5983L39.4495 16.905ZM38.1428 20.5064L41.7442 21.8131L40.5012 25.2551L36.8999 23.9483L38.1428 20.5064ZM41.7442 21.8131L43.0509 18.2117L46.6523 19.5184L45.3456 23.1198L41.7442 21.8131ZM43.0509 18.2117L39.4495 16.905L40.7084 13.447L44.3098 14.7537L43.0509 18.2117ZM15.8812 20.6179L14.5745 17.0165L18.1759 15.7098L19.4826 19.3112C19.4826 19.3113 15.8812 20.6179 15.8812 20.6179ZM14.5745 17.0165L10.9731 18.3232L9.71428 14.8653L13.3157 13.5585L14.5745 17.0165ZM10.9731 18.3232L12.2799 21.9246L8.67848 23.2313L7.37176 19.6299L10.9731 18.3232ZM12.2799 21.9246L15.8812 20.6179L17.1242 24.0599L13.5228 25.3666L12.2799 21.9246ZM8.67848 23.2313L9.92144 26.6733L6.46347 27.9322L5.22051 24.4902L8.67848 23.2313ZM7.37176 19.6299L3.91379 20.8888L2.65494 17.4308L6.11291 16.172L7.37176 19.6299ZM18.1919 15.6939L16.933 12.2359L20.375 10.9771L21.6339 14.435L18.1919 15.6939ZM35.8482 15.5824L32.4062 14.3235L33.665 10.8655L35.9119 11.6782L37.1071 12.1084L35.8483 15.5664V15.5824H35.8482ZM46.6682 19.5184L47.927 16.0604L51.385 17.3193L50.1262 20.7773L46.6682 19.5184ZM45.3616 23.1198L48.8195 24.3786L47.5766 27.8206L44.1186 26.5618L45.3616 23.1198ZM31.0994 17.9248L34.5415 19.1837L33.2985 22.6257L29.8565 21.3669C30.2708 20.2195 30.6851 19.0722 31.0994 17.9248ZM22.9406 18.0364C23.3549 19.1837 23.7692 20.3311 24.1835 21.4784L20.7415 22.7373L19.4985 19.2953L22.9406 18.0364Z" fill="#EB0029"/>
</g>
<defs>
<clipPath id="clip0_133_1810">
<rect width="54" height="54" fill="white"/>
</clipPath>
</defs>
</svg>
