<svg width="39" height="39" viewBox="0 0 39 39" fill="none" xmlns="http://www.w3.org/2000/svg">
<g clip-path="url(#clip0_133_1814)">
<path d="M34.9024 8.95052L20.1645 0.182759C19.7549 -0.0608384 19.2448 -0.0608384 18.8352 0.182759L4.09726 8.95052C3.70338 9.1849 3.46191 9.60949 3.46191 10.0678V15.0728C3.46191 25.6146 9.55262 35.2429 19.0305 38.9124C19.3322 39.0292 19.6672 39.0294 19.9692 38.9124C29.424 35.252 35.5377 25.6446 35.5377 15.0728V10.0678C35.5377 9.60941 35.2964 9.1849 34.9024 8.95052ZM25.9224 16.5788L17.7747 24.7266C17.267 25.2343 16.4439 25.2343 15.9362 24.7266L13.0767 21.8672C12.569 21.3596 12.569 20.5364 13.0767 20.0287C13.5844 19.5211 14.4076 19.5211 14.9152 20.0287L16.8554 21.9689L24.0839 14.7403C24.5915 14.2327 25.4147 14.2327 25.9224 14.7403C26.4302 15.2481 26.4302 16.0712 25.9224 16.5788Z" fill="#EB0029"/>
</g>
<defs>
<clipPath id="clip0_133_1814">
<rect width="39" height="39" fill="white"/>
</clipPath>
</defs>
</svg>
