<svg width="41" height="41" viewBox="0 0 41 41" fill="none" xmlns="http://www.w3.org/2000/svg">
<g clip-path="url(#clip0_133_1795)">
<path d="M10.6647 26.0059C10.0382 25.3797 9.80231 25.6943 9.66297 25.8338C6.05536 29.4414 2.85259 38.146 4.54576 37.2958C10.7096 34.2009 11.7366 35.1224 15.3441 31.515C15.4835 31.3755 15.8042 31.1456 15.1595 30.5008L10.6647 26.0059Z" fill="#EB0029"/>
<path d="M30.1128 25.9576C29.9493 25.4373 30.2918 25.1866 30.436 25.031C38.3983 16.4347 43.4587 4.98166 39.7087 1.23138C35.9784 -2.49869 24.8786 2.70956 16.2846 10.6145C16.1146 10.7711 15.7795 11.0676 15.18 10.9424L12.5024 10.3049C11.759 10.1281 10.7086 10.4252 10.1682 10.9656L0.34344 20.7902C-0.196925 21.3307 -0.0213618 21.87 0.733622 21.9885L7.83956 23.1052C8.59454 23.224 9.65433 22.8789 10.1946 22.3384C10.1946 22.3384 10.5612 21.9708 10.9296 22.339C12.9619 24.3711 16.7386 28.1478 18.6748 30.0841C19.0597 30.4689 18.6911 30.8349 18.6911 30.8349C18.1506 31.3754 17.8056 32.435 17.9244 33.1901L19.041 40.2959C19.1596 41.0511 19.6989 41.2267 20.2393 40.6862L30.0641 30.8613C30.6044 30.3209 30.9017 29.2707 30.7246 28.5273L30.1128 25.9576ZM27.9132 13.2647C26.2491 11.6006 26.2491 8.90282 27.9132 7.23897C29.5771 5.57488 32.2749 5.57488 33.9391 7.23897C35.603 8.9027 35.603 11.6006 33.9391 13.2646C32.2749 14.9286 29.577 14.9286 27.9132 13.2647Z" fill="#EB0029"/>
</g>
<defs>
<clipPath id="clip0_133_1795">
<rect width="41" height="41" fill="white"/>
</clipPath>
</defs>
</svg>
