<svg width="62" height="62" viewBox="0 0 62 62" fill="none" xmlns="http://www.w3.org/2000/svg">
<path d="M35.0785 5.90934L31.436 13.1943C31.3954 13.2751 31.3331 13.3431 31.2561 13.3905C31.1791 13.438 31.0905 13.4631 31 13.4631C30.9096 13.4631 30.8209 13.438 30.744 13.3905C30.667 13.3431 30.6047 13.2751 30.5641 13.1943L26.9216 5.90934C26.8858 5.83478 26.8694 5.75243 26.8737 5.66985C26.8781 5.58728 26.9031 5.50711 26.9465 5.43672C26.9899 5.36633 27.0503 5.30797 27.1221 5.26698C27.1939 5.22599 27.2749 5.2037 27.3575 5.20215H34.6425C34.7252 5.2037 34.8062 5.22599 34.878 5.26698C34.9498 5.30797 35.0102 5.36633 35.0536 5.43672C35.097 5.50711 35.122 5.58728 35.1263 5.66985C35.1307 5.75243 35.1142 5.83478 35.0785 5.90934Z" fill="#EB0029"/>
<path d="M26.7703 27.5592C26.7747 27.3325 26.7976 27.1065 26.8386 26.8834L16.1297 22.4478C15.5663 24.0931 15.2775 25.82 15.2749 27.5592C15.2781 29.2974 15.5713 31.0229 16.1424 32.6645L26.8385 28.2342C26.7975 28.0114 26.7747 27.7857 26.7703 27.5592Z" fill="#EB0029"/>
<path d="M28.5345 24.1375L24.0943 13.4176C20.9369 14.9464 18.3873 17.4951 16.8574 20.652L27.579 25.0929C27.8445 24.7255 28.1671 24.403 28.5345 24.1375Z" fill="#EB0029"/>
<path d="M31.0001 29.851C32.2659 29.851 33.2921 28.8248 33.2921 27.5589C33.2921 26.293 32.2659 25.2668 31.0001 25.2668C29.7342 25.2668 28.708 26.293 28.708 27.5589C28.708 28.8248 29.7342 29.851 31.0001 29.851Z" fill="#EB0029"/>
<path d="M27.5782 30.0248L16.8882 34.4526C18.4294 37.591 20.968 40.1296 24.1064 41.6709L28.534 30.9806C28.1665 30.715 27.8439 30.3923 27.5782 30.0248Z" fill="#EB0029"/>
<path d="M34.4213 25.0929L45.1429 20.652C43.613 17.4951 41.0634 14.9464 37.906 13.4176L33.4658 24.1375C33.8332 24.403 34.1558 24.7255 34.4213 25.0929Z" fill="#EB0029"/>
<path d="M45.8705 22.4478L35.1616 26.8834C35.2527 27.329 35.2528 27.7885 35.1617 28.2342L45.8578 32.6645C46.429 31.0228 46.7222 29.2974 46.7254 27.5592C46.7227 25.82 46.4339 24.0931 45.8705 22.4478Z" fill="#EB0029"/>
<path d="M30.9998 31.789C30.7733 31.7845 30.5474 31.7617 30.3245 31.7207L25.8945 42.4169C29.1998 43.5736 32.7999 43.5736 36.1052 42.4169L31.6748 31.7207C31.452 31.7617 31.2263 31.7845 30.9998 31.789Z" fill="#EB0029"/>
<path d="M34.1194 12.1578L33.1701 14.0565C32.9676 14.4585 32.6576 14.7963 32.2744 15.0323C31.8913 15.2684 31.4501 15.3934 31 15.3934C30.55 15.3934 30.1088 15.2684 29.7257 15.0323C29.3425 14.7963 29.0325 14.4585 28.83 14.0565L27.8807 12.1578C27.2083 12.2942 26.5451 12.4722 25.8947 12.6906L30.3219 23.3953C30.5462 23.3578 30.7728 23.3352 31 23.3275C31.2273 23.3352 31.4539 23.3578 31.6782 23.3953L36.1054 12.6906C35.455 12.4722 34.7918 12.2942 34.1194 12.1578ZM36.2507 7.89526L35.0204 10.3559C39.24 11.3424 42.9497 13.8459 45.4433 17.3899C47.937 20.9339 49.0406 25.2711 48.5441 29.576C48.0475 33.8809 45.9856 37.8529 42.7506 40.7362C39.5156 43.6195 35.3335 45.2128 31 45.2128C26.6666 45.2128 22.4845 43.6195 19.2495 40.7362C16.0145 37.8529 13.9526 33.8809 13.456 29.576C12.9595 25.2711 14.0631 20.9339 16.5568 17.3899C19.0504 13.8459 22.7601 11.3424 26.9797 10.3559L25.7494 7.89526C20.9798 9.16945 16.8363 12.1346 14.0912 16.2379C11.3461 20.3412 10.1868 25.3027 10.8293 30.1976C11.4719 35.0925 13.8725 39.5867 17.5836 42.8425C21.2947 46.0983 26.0632 47.8935 31 47.8935C35.9369 47.8935 40.7054 46.0983 44.4165 42.8425C48.1276 39.5867 50.5282 35.0925 51.1707 30.1976C51.8133 25.3027 50.654 20.3412 47.9089 16.2379C45.1638 12.1346 41.0203 9.16945 36.2507 7.89526ZM34.1194 12.1578L33.1701 14.0565C32.9676 14.4585 32.6576 14.7963 32.2744 15.0323C31.8913 15.2684 31.4501 15.3934 31 15.3934C30.55 15.3934 30.1088 15.2684 29.7257 15.0323C29.3425 14.7963 29.0325 14.4585 28.83 14.0565L27.8807 12.1578C27.2083 12.2942 26.5451 12.4722 25.8947 12.6906L30.3219 23.3953C30.5462 23.3578 30.7728 23.3352 31 23.3275C31.2273 23.3352 31.4539 23.3578 31.6782 23.3953L36.1054 12.6906C35.455 12.4722 34.7918 12.2942 34.1194 12.1578ZM34.1194 12.1578L33.1701 14.0565C32.9676 14.4585 32.6576 14.7963 32.2744 15.0323C31.8913 15.2684 31.4501 15.3934 31 15.3934C30.55 15.3934 30.1088 15.2684 29.7257 15.0323C29.3425 14.7963 29.0325 14.4585 28.83 14.0565L27.8807 12.1578C27.2083 12.2942 26.5451 12.4722 25.8947 12.6906L30.3219 23.3953C30.5462 23.3578 30.7728 23.3352 31 23.3275C31.2273 23.3352 31.4539 23.3578 31.6782 23.3953L36.1054 12.6906C35.455 12.4722 34.7918 12.2942 34.1194 12.1578Z" fill="#EB0029"/>
<path d="M33.4658 30.9809L37.8937 41.6709C41.0321 40.1297 43.5707 37.591 45.112 34.4526L34.4219 30.0248C34.1562 30.3924 33.8334 30.7152 33.4658 30.9809Z" fill="#EB0029"/>
<path d="M48.6989 55.3544V55.8581C48.6992 56.1058 48.6016 56.3435 48.4274 56.5195C48.2532 56.6955 48.0165 56.7956 47.7689 56.7978H14.2308C13.9832 56.7956 13.7465 56.6955 13.5723 56.5195C13.3981 56.3435 13.3005 56.1058 13.3008 55.8581V55.3544C13.2998 54.1096 13.7931 52.9155 14.6724 52.0344C15.5516 51.1533 16.7448 50.6575 17.9895 50.6559H21.2155V47.5753C24.2615 49.0668 27.6082 49.8422 30.9998 49.8422C34.3915 49.8422 37.7382 49.0668 40.7842 47.5753V50.6559H44.0102C45.2549 50.6575 46.4481 51.1533 47.3273 52.0344C48.2066 52.9155 48.6999 54.1096 48.6989 55.3544Z" fill="#EB0029"/>
</svg>
